<?xml version="1.0" standalone="no"?>
<!DOCTYPE svg PUBLIC "-//W3C//DTD SVG 20010904//EN"
 "http://www.w3.org/TR/2001/REC-SVG-20010904/DTD/svg10.dtd">
<svg version="1.0" xmlns="http://www.w3.org/2000/svg"
 width="260.000000pt" height="260.000000pt" viewBox="0 0 260.000000 260.000000"
 preserveAspectRatio="xMidYMid meet">
<metadata>
Created by potrace 1.11, written by Peter Selinger 2001-2013
</metadata>
<g transform="translate(0.000000,260.000000) scale(0.100000,-0.100000)"
fill="#000000" stroke="none">
<path d="M244 2591 c-47 -12 -133 -62 -160 -94 -14 -17 -37 -53 -52 -81 l-27
-51 0 -1065 0 -1065 34 -63 c37 -69 79 -109 151 -144 l45 -23 1065 0 1065 0
50 25 c64 31 124 91 155 155 l25 50 0 1065 0 1065 -34 63 c-38 70 -69 100
-145 140 l-51 27 -1045 2 c-575 0 -1059 -2 -1076 -6z m1291 -436 c207 -37 368
-183 420 -380 20 -77 19 -234 -1 -310 -41 -159 -158 -288 -321 -353 -68 -27
-69 -27 -375 -30 l-308 -3 0 -325 0 -324 -155 0 -155 0 0 863 c0 475 3 867 7
870 3 4 187 7 407 7 301 -1 421 -4 481 -15z"/>
<path d="M950 1626 l0 -276 240 0 c213 0 246 2 290 19 75 29 115 64 147 128
55 114 28 256 -64 332 -69 57 -104 63 -370 69 l-243 4 0 -276z"/>
</g>
</svg>
