<?xml version="1.0" standalone="no"?>
<!DOCTYPE svg PUBLIC "-//W3C//DTD SVG 20010904//EN"
 "http://www.w3.org/TR/2001/REC-SVG-20010904/DTD/svg10.dtd">
<svg version="1.0" xmlns="http://www.w3.org/2000/svg"
 width="260.000000pt" height="260.000000pt" viewBox="0 0 260.000000 260.000000"
 preserveAspectRatio="xMidYMid meet">
<metadata>
Created by potrace 1.11, written by Peter Selinger 2001-2013
</metadata>
<g transform="translate(0.000000,260.000000) scale(0.100000,-0.100000)"
fill="#000000" stroke="none">
<path d="M0 1300 l0 -1300 1300 0 1300 0 0 1300 0 1300 -1300 0 -1300 0 0
-1300z m1670 847 c192 -57 328 -192 375 -372 19 -74 19 -233 0 -304 -49 -184
-194 -327 -381 -375 -49 -13 -119 -16 -343 -16 l-281 0 0 -325 0 -325 -155 0
-155 0 0 863 c0 475 3 867 7 871 4 4 204 6 443 3 364 -3 444 -6 490 -20z"/>
<path d="M1040 1626 l0 -276 238 0 c130 0 254 5 274 10 63 18 129 70 162 130
27 48 31 65 31 130 -1 91 -27 153 -87 204 -72 62 -105 68 -375 74 l-243 4 0
-276z"/>
</g>
</svg>
