<?xml version="1.0" standalone="no"?>
<!DOCTYPE svg PUBLIC "-//W3C//DTD SVG 20010904//EN"
 "http://www.w3.org/TR/2001/REC-SVG-20010904/DTD/svg10.dtd">
<svg version="1.0" xmlns="http://www.w3.org/2000/svg"
 width="260.000000pt" height="260.000000pt" viewBox="0 0 260.000000 260.000000"
 preserveAspectRatio="xMidYMid meet">
<metadata>
Created by potrace 1.11, written by Peter Selinger 2001-2013
</metadata>
<g transform="translate(0.000000,260.000000) scale(0.100000,-0.100000)"
fill="#000000" stroke="none">
<path d="M651 2589 c-179 -36 -359 -143 -471 -282 -59 -73 -119 -184 -151
-282 -24 -70 -24 -70 -27 -697 -3 -597 -2 -632 17 -711 71 -300 297 -526 595
-597 76 -19 121 -20 686 -20 565 0 610 1 686 20 153 36 283 111 390 222 107
111 170 226 205 375 19 79 20 114 17 711 -3 627 -3 627 -27 697 -90 270 -276
456 -546 546 l-70 24 -630 1 c-346 1 -650 -2 -674 -7z m755 -220 c283 -39 529
-242 618 -509 68 -206 53 -411 -45 -601 -100 -193 -277 -335 -486 -390 -163
-44 -377 -23 -522 50 l-61 31 0 149 0 149 43 -40 c47 -44 159 -102 227 -117
58 -13 182 -13 240 0 87 20 186 76 254 144 276 276 170 741 -201 877 -47 18
-80 22 -173 22 -93 0 -126 -4 -173 -22 -152 -55 -272 -175 -330 -327 l-22 -60
-3 -758 -3 -757 -119 0 -120 0 0 709 c0 451 4 738 11 788 39 287 223 520 490
620 130 49 239 61 375 42z"/>
</g>
</svg>
